# xmcd
#
# Track frame offsets:
#	150
#	6397
#	28747
#	48609
#	70355
#	84321
#	107361
#
# Disc length: 1676 seconds
# Revision: 0
# Processed by: cddbd v1.5.2PL0 Copyright (c) Steve Scherf et al.
# Submitted via: dBpowerAMP V12.0
#
DISCID=54068a07
DTITLE=Sylosis - The Supreme Oppressor
DYEAR=2008
DGENRE=Metal
TTITLE0=The Supreme Oppressor (Intro)
TTITLE1=Manipulation Through Idols
TTITLE2=Vision of Demise
TTITLE3=Slowly Consumed
TTITLE4=Silence from Those in the Sky (Instrumental)
TTITLE5=Turbulence
TTITLE6=Blind Desperation
EXTD=
EXTT0=
EXTT1=
EXTT2=
EXTT3=
EXTT4=
EXTT5=
EXTT6=
PLAYORDER=
